<svg xmlns="http://www.w3.org/2000/svg" viewBox="0 0 24 24">
  <style>
    .board { fill: #00676d; }
    .traces { stroke: #b8eee0; }
    .nodes { fill: #17b582; }
    @media (prefers-color-scheme: dark) {
      .board { fill: #17b582; }
      .traces { stroke: #024c50; }
      .nodes { fill: #d5fff2; }
    }
  </style>
  <path
    class="board"
    fill-rule="evenodd"
    clip-rule="evenodd"
    d="M8.848 0h4.91l8.848 24H0L8.848 0Zm-2.322 19.44h9.566L11.45 5.836h-.281L6.526 19.44Z"
  />
  <g class="traces" fill="none" stroke-width=".72" stroke-linecap="round" stroke-linejoin="round">
    <path d="M11.3.9v2.8H9.4v2" />
    <path d="M12.7 1.5v2.2h1.7v3" />
    <path d="M2.8 21.8h2.3l3-8.4h.8" />
    <path d="M19.8 21.8h-2.3l-3-8.4h-.8" />
    <path d="M7.3 21.8h8" />
    <path d="M11.3 23.2v-2.8" />
  </g>
  <g class="nodes">
    <circle cx="9.4" cy="5.7" r=".65" />
    <circle cx="14.4" cy="6.7" r=".65" />
    <circle cx="8.9" cy="13.4" r=".65" />
    <circle cx="12.7" cy="13.4" r=".65" />
    <circle cx="2.8" cy="21.8" r=".65" />
    <circle cx="19.8" cy="21.8" r=".65" />
    <circle cx="11.3" cy="20.4" r=".65" />
  </g>
</svg>
